<svg id="Layer_1" height="512" viewBox="0 0 512 512" width="512" xmlns="http://www.w3.org/2000/svg" data-name="Layer 1"><path d="m439.31 348.9c-18.89-34.99-36.36-48.17-32.31-87.87 3.28-32.13 42.52-22.21 38.69-25.21-23.35-18.22-60.95-20.56-60.05 35.68.88 54.46 32.72 91.65 41.15 117.74 9.67 29.94-24.74 54.7-53.42 41.89q-2.22-.99-4.31-1.97c30.49-191.81-121.94-224.21-137.48-227.33-1.06-.22-2.1-.44-3.15-.71-24.89-6.37-53.87-25.07-50.72-82.8 3.23-59.21-40.62-66.61-40.62-66.61 1.38-18.97-35.09-40.71-35.09-40.71 4.55 8.2-2.34 26-2.56 26.56-13.83-11.1-31.19-13.75-31.19-13.75s15.4 38.25 11.38 45.63-17.41 21.48-18.08 34.9-14.06 12.75-6.69 32.88 50.22 10.74 50.22 10.74 3.35 22.14-10.71 49.66 23.44 105.36 23.44 105.36 32.11 79.8-6.81 155.58a10.578 10.578 0 0 1 -7.52 5.55c-9.54 1.73-29.14 6.94-24.42 20.06a13.507 13.507 0 0 0 11.76 8.77c15.06 1.13 26.31-1.73 33.29-4.46a17.518 17.518 0 0 0 10.41-11.41c6.31-21.47 25.74-84.37 40.77-99.09 0 0 1.58 15.92 21.72 24.65h.01c3.56 13.76 11.5 29.52 25.63 47.45l20.86 18.99s-46.99-3.96-54.1 19.61a8.848 8.848 0 0 0 8.21 11.39c29.38.83 123.4 2.93 126.51-4.35 6.55-15.32 17.23-14.19 44.31-12.95 19.31.88 78.09 1.33 89.44-57.79 5.14-26.79-3.73-48.59-18.57-76.08z" fill="#838383"/><g fill="#989899"><path d="m84.86 137.22c-7.37-20.13 6.02-19.46 6.69-32.88a33.078 33.078 0 0 1 3.857-12.906 69.749 69.749 0 0 0 4.457-52.548l-.424-1.326c-13.83-11.1-31.19-13.75-31.19-13.75s15.4 38.25 11.38 45.63-17.41 21.48-18.08 34.9-14.06 12.75-6.69 32.88c5.869 16.052 34.311 13.333 45.594 11.573-7.14-1.655-13.218-5.074-15.594-11.573z"/><path d="m147.81 302.98s-37.51-77.85-23.44-105.36a106.056 106.056 0 0 0 5.452-12.6c5.837-16.349-5.522-33.53-22.8-35.183q-.886-.084-1.765-.195c.453 5.64.9 24.917-10.885 47.981-14.07 27.51 23.44 105.36 23.44 105.36s32.11 79.8-6.81 155.58a10.578 10.578 0 0 1 -7.52 5.55c-9.54 1.73-29.14 6.94-24.42 20.06a13.507 13.507 0 0 0 11.76 8.77l.292.021a41.162 41.162 0 0 0 35.018-15.5l13.356-16.719c4.548-14.481 10.856-33.328 17.583-49.679 10.77-58.281-9.261-108.086-9.261-108.086z"/></g></svg>