<?xml version="1.0" encoding="iso-8859-1"?>
<!-- Generator: Adobe Illustrator 19.0.0, SVG Export Plug-In . SVG Version: 6.00 Build 0)  -->
<svg version="1.1" id="Layer_1" xmlns="http://www.w3.org/2000/svg" xmlns:xlink="http://www.w3.org/1999/xlink" x="0px" y="0px"
	 viewBox="0 0 496.166 496.166" style="enable-background:new 0 0 496.166 496.166;" xml:space="preserve">
<path style="fill:#D8DBBA;" d="M0.004,248.083C0.004,111.062,111.074,0,248.079,0c137.013,0,248.083,111.062,248.083,248.083
	c0,137.005-111.07,248.083-248.083,248.083C111.074,496.166,0.004,385.088,0.004,248.083z"/>
<path style="fill:#AA9471;" d="M248.079,496.166c90.488,0,169.631-48.466,212.967-120.836H35.119
	C78.453,447.7,157.597,496.166,248.079,496.166z"/>
<g>
	<path style="fill:#353535;" d="M238.581,65.558c0,0,7.671,33.62,5.713,42.108l29.051-16.158l-23.013-29.867
		C250.332,61.641,238.581,51.193,238.581,65.558z"/>
	<path style="fill:#353535;" d="M340.914,66.536c0,0-7.672,33.62-5.713,42.108L306.15,92.487l23.013-29.868
		C329.163,62.619,340.914,52.173,340.914,66.536z"/>
	<path style="fill:#353535;" d="M160.24,375.185h107.998c0,0,15.709-3.48,14.161-9.013c-1.548-5.531-5.149-6.438-12.876-7.723
		h-12.872c0,0,10.491-9.234,14.161-21.888l11.587,19.31c0,0,9.052,16.885,11.587,19.313c2.533,2.429,14.222,2.793,19.313,0
		c5.091-2.792,7.491-14.938,5.148-19.313c-2.343-4.368-11.589-6.435-11.589-6.435l-3.861-88.837c0,0,30.9-47.636,23.176-105.569
		c0,0,19.964-21.903,9.01-47.64c0,0-15.598-24.612-43.885-25.186c-19.283-0.398-39.171,7.18-45.699,19.585
		c-7.482,14.215,0,31.337,3.918,45.696c0,0-8.318,8.829-14.754,15.263c-6.436,6.442-41.2,16.739-56.648,37.343
		c-15.45,20.595-49.449,54.073-49.318,100.42c0,0,2.1,34.76,1.576,57.57C130.196,365.687,160.24,375.185,160.24,375.185z"/>
	<path style="fill:#353535;" d="M302.998,260.6c0,0,30.9-47.636,23.176-105.569c0,0,19.964-21.903,9.01-47.64
		c0,0-15.598-24.612-43.885-25.186c-19.283-0.398-39.171,7.18-45.699,19.585c-7.482,14.215,0,31.337,3.918,45.696
		c0,0-8.089,9.066-14.754,15.263C201.858,193.352,302.998,260.6,302.998,260.6z"/>
	<path style="fill:#353535;" d="M130.373,358.082c0,0-8.324,35.528,9.303,52.177c17.627,16.647,52.88,37.701,119.029-8.438
		c0,0,2.957-7.712-10.297-2.575c-13.254,5.138-99.92,33.536-83.762-36.971L130.373,358.082z"/>
</g>
<ellipse style="fill:#0A0A0A;" cx="289.973" cy="144.703" rx="14.548" ry="13.92"/>
<g>
	<path style="fill:#515150;" d="M291.953,141.067c0,7.689-6.516,13.925-14.55,13.925c-8.032,0-14.548-6.235-14.548-13.925
		c0-7.685,6.516-13.916,14.548-13.916C285.437,127.151,291.953,133.383,291.953,141.067z"/>
	<path style="fill:#515150;" d="M317.453,141.067c0,7.689-6.514,13.925-14.549,13.925c-8.033,0-14.547-6.235-14.547-13.925
		c0-7.685,6.514-13.916,14.547-13.916C310.939,127.151,317.453,133.383,317.453,141.067z"/>
</g>
<path d="M296.846,138.062c0-1.929-3.279-10.73-3.279-10.73h-6.642c0,0-3.278,8.626-3.278,10.73c0,2.111,3.299,5.21,4.311,6.234
	c0.796,0.804,3.791,0.796,4.575,0C293.477,143.34,296.846,139.997,296.846,138.062z"/>
<path style="fill:#262626;" d="M296.846,138.062c0-1.929-2.479-10.076-3.279-10.73c-0.799-0.654-5.631-0.734-6.642,0
	c-1.013,0.734-3.278,8.626-3.278,10.73C283.646,140.173,296.846,139.997,296.846,138.062z"/>
<path d="M280.242,119.203c0,2.383-5.523,5.775-10.473,5.21c-3.928-0.448-8.764-5.796-8.303-8.354
	c0.529-2.388,5.442-5.846,9.387-5.593C276.697,110.841,280.242,116.356,280.242,119.203z"/>
<path style="fill:#DDD362;" d="M277.334,118.705c-0.084,2.143-4.045,5.383-7.465,5.046c-2.717-0.264-5.893-4.9-5.482-7.211
	c0.451-2.173,3.989-5.447,6.725-5.355C275.162,111.315,277.434,116.15,277.334,118.705z"/>
<path style="fill:#352E28;" d="M268.936,117.458c0-0.994,0.805-3.427,1.797-3.427s1.796,2.433,1.796,3.427
	c0,0.991-0.804,2.773-1.796,2.773S268.936,118.449,268.936,117.458z"/>
<path d="M299.955,119.203c0,2.383,5.523,5.775,10.472,5.21c3.929-0.448,8.764-5.796,8.303-8.354
	c-0.528-2.388-5.442-5.846-9.388-5.593C303.5,110.841,299.955,116.356,299.955,119.203z"/>
<path style="fill:#DDD362;" d="M302.862,118.705c0.085,2.143,4.046,5.383,7.466,5.046c2.717-0.264,5.893-4.9,5.482-7.211
	c-0.451-2.173-3.99-5.447-6.725-5.355C305.035,111.315,302.764,116.15,302.862,118.705z"/>
<path style="fill:#352E28;" d="M311.261,117.458c0-0.994-0.804-3.427-1.796-3.427s-1.796,2.433-1.796,3.427
	c0,0.991,0.804,2.773,1.796,2.773S311.261,118.449,311.261,117.458z"/>
<path style="fill:#0F0F0F;" d="M207.734,239.537c0,0,54.187,15.669,63.078,97.024l-0.283,0.864c0,0-7.955-26.402-23.949-55.451
	C230.584,252.922,207.734,239.537,207.734,239.537z"/>
<g>
	<polygon style="fill:#353535;" points="321.539,114.342 297.176,119.89 303.676,103.39 	"/>
	<polygon style="fill:#353535;" points="259.176,114.342 283.539,119.89 277.039,103.39 	"/>
</g>
<g>
</g>
<g>
</g>
<g>
</g>
<g>
</g>
<g>
</g>
<g>
</g>
<g>
</g>
<g>
</g>
<g>
</g>
<g>
</g>
<g>
</g>
<g>
</g>
<g>
</g>
<g>
</g>
<g>
</g>
</svg>
